# xmcd CD database file
# Copyright (C) 1993-1996 Ti Kan
#
# Track frame offsets:
#	182
#	18127
#	41375
#	66730
#	85172
#	110540
#	135997
#	157485
#	179467
#	201527
#	222122
#
# Disc length: 3043 seconds
#
# Revision: 1
# Processed by: cddbd v1.4b41PL1 Copyright (c) Steve Scherf et al.
# Submitted via: CDValet v3.31 - Copyright (c) 1997 Greg Leichner
#
DISCID=a00be10b
DTITLE=Mica Paris - Contribution
DYEAR=1900
DGENRE=
TTITLE0=Contribution
TTITLE1=South Of The River
TTITLE2=Truth And Honesty
TTITLE3=Just To BE With You
TTITLE4=If I Love U 2 Nite
TTITLE5=I've Been Watching You
TTITLE6=You Can Make A Wish
TTITLE7=I Can't Stop Loving You
TTITLE8=More Love
TTITLE9=Take Me Away
TTITLE10=One World
EXTD=
EXTT0=
EXTT1=
EXTT2=
EXTT3=
EXTT4=
EXTT5=
EXTT6=
EXTT7=
EXTT8=
EXTT9=
EXTT10=
PLAYORDER=
